<?xml version="1.0" encoding="UTF-8"?>
<!DOCTYPE svg PUBLIC "-//W3C//DTD SVG 1.1//EN" "http://www.w3.org/Graphics/SVG/1.1/DTD/svg11.dtd">
<svg xmlns="http://www.w3.org/2000/svg" version="1.1" width="771px" height="255px" style="shape-rendering:geometricPrecision; text-rendering:geometricPrecision; image-rendering:optimizeQuality; fill-rule:evenodd; clip-rule:evenodd" xmlns:xlink="http://www.w3.org/1999/xlink">
<g><path style="opacity:1" fill="#fdf5e3" d="M -0.5,-0.5 C 256.5,-0.5 513.5,-0.5 770.5,-0.5C 770.5,84.5 770.5,169.5 770.5,254.5C 513.5,254.5 256.5,254.5 -0.5,254.5C -0.5,169.5 -0.5,84.5 -0.5,-0.5 Z"/></g>
<g><path style="opacity:1" fill="#f3ad28" d="M 73.5,94.5 C 74.5092,93.0609 74.1759,91.7276 72.5,90.5C 69.9135,89.52 67.2469,89.1866 64.5,89.5C 66.9686,88.6829 69.6353,88.1829 72.5,88C 73.8333,86.6667 73.8333,85.3333 72.5,84C 64.1478,83.3783 55.8144,83.545 47.5,84.5C 48.9488,82.8356 50.9488,82.0023 53.5,82C 60.2147,81.7571 66.8813,81.2571 73.5,80.5C 74.2223,81.5511 75.2223,82.2178 76.5,82.5C 82.5669,87.8639 88.5669,87.6973 94.5,82C 92.478,79.9906 90.1446,78.4906 87.5,77.5C 86.7375,76.7321 85.7375,76.2321 84.5,76C 85.056,75.6174 85.3893,75.1174 85.5,74.5C 105.807,65.014 126.14,55.514 146.5,46C 148.441,45.2571 150.274,45.4238 152,46.5C 153.243,49.883 154.243,53.2163 155,56.5C 130.807,67.9446 106.64,79.2779 82.5,90.5C 81.6544,97.7618 78.6544,99.0951 73.5,94.5 Z"/></g>
<g><path style="opacity:1" fill="#fcf0d8" d="M 119.5,60.5 C 123.048,61.6072 126.381,63.2738 129.5,65.5C 126.206,68.1546 122.539,69.6546 118.5,70C 115.991,68.5787 113.657,66.9121 111.5,65C 114.191,63.3952 116.858,61.8952 119.5,60.5 Z"/></g>
<g><path style="opacity:1" fill="#fef2d9" d="M 137.5,52.5 C 141.358,53.0956 144.691,54.7622 147.5,57.5C 143.727,59.8986 139.727,61.3986 135.5,62C 132.827,60.9986 130.493,59.4986 128.5,57.5C 131.479,55.6333 134.479,53.9667 137.5,52.5 Z"/></g>
<g><path style="opacity:1" fill="#f9efda" d="M 102.5,68.5 C 106.217,69.5274 109.55,71.3607 112.5,74C 108.599,75.9669 104.599,77.3003 100.5,78C 98.2827,76.7316 96.2827,75.2316 94.5,73.5C 97.2308,71.8084 99.8975,70.1417 102.5,68.5 Z"/></g>
<g><path style="opacity:1" fill="#f7b942" d="M 85.5,74.5 C 85.3893,75.1174 85.056,75.6174 84.5,76C 85.7375,76.2321 86.7375,76.7321 87.5,77.5C 82.848,77.3305 79.1814,78.9971 76.5,82.5C 75.2223,82.2178 74.2223,81.5511 73.5,80.5C 74.6002,79.4415 75.9336,78.6082 77.5,78C 75.2983,76.9777 72.9649,76.4777 70.5,76.5C 61.1499,77.5006 52.1499,79.5006 43.5,82.5C 39.0587,83.4245 34.7254,84.7578 30.5,86.5C 29.3961,85.3687 29.7295,84.5354 31.5,84C 45.6106,78.0448 60.2772,75.0448 75.5,75C 77.3553,75.4221 79.1886,75.9221 81,76.5C 82.4064,75.5862 83.9064,74.9195 85.5,74.5 Z"/></g>
<g><path style="opacity:1" fill="#fdeed0" d="M 73.5,80.5 C 66.8813,81.2571 60.2147,81.7571 53.5,82C 50.9488,82.0023 48.9488,82.8356 47.5,84.5C 46.5326,83.1938 45.1993,82.5271 43.5,82.5C 52.1499,79.5006 61.1499,77.5006 70.5,76.5C 72.9649,76.4777 75.2983,76.9777 77.5,78C 75.9336,78.6082 74.6002,79.4415 73.5,80.5 Z"/></g>
<g><path style="opacity:1" fill="#f8ecd5" d="M 87.5,77.5 C 90.1446,78.4906 92.478,79.9906 94.5,82C 88.5669,87.6973 82.5669,87.8639 76.5,82.5C 79.1814,78.9971 82.848,77.3305 87.5,77.5 Z"/></g>
<g><path style="opacity:1" fill="#f6d89d" d="M 76.5,92.5 C 79.9571,92.6672 80.2904,93.6672 77.5,95.5C 76.6143,94.675 76.281,93.675 76.5,92.5 Z"/></g>
<g><path style="opacity:1" fill="#f5a60b" d="M 299.5,109.5 C 289.167,109.5 278.833,109.5 268.5,109.5C 268.5,112.833 268.5,116.167 268.5,119.5C 276.833,119.5 285.167,119.5 293.5,119.5C 294.821,123.233 294.821,127.066 293.5,131C 285.173,131.5 276.84,131.666 268.5,131.5C 268.5,136.833 268.5,142.167 268.5,147.5C 263.167,147.5 257.833,147.5 252.5,147.5C 252.5,130.833 252.5,114.167 252.5,97.5C 268.17,97.3334 283.837,97.5001 299.5,98C 300.8,101.832 300.8,105.666 299.5,109.5 Z"/></g>
<g><path style="opacity:1" fill="#f4a817" d="M 454.5,147.5 C 454.831,139.14 454.498,130.807 453.5,122.5C 452.893,122.624 452.56,122.957 452.5,123.5C 449.507,131.982 445.841,140.149 441.5,148C 437.167,148.667 432.833,148.667 428.5,148C 427.667,147.167 426.833,146.333 426,145.5C 423.58,137.903 420.58,130.569 417,123.5C 416.803,131.549 416.303,139.549 415.5,147.5C 413,147.833 410.5,148.167 408,148.5C 405.05,148.432 402.383,147.766 400,146.5C 399.176,130.259 399.342,114.093 400.5,98C 407.167,97.3333 413.833,97.3333 420.5,98C 422.049,99.214 423.215,100.714 424,102.5C 427.264,111.616 430.93,120.616 435,129.5C 439.06,118.656 443.894,108.156 449.5,98C 456.414,97.1888 463.248,97.3555 470,98.5C 470.667,114.5 470.667,130.5 470,146.5C 469.5,147 469,147.5 468.5,148C 463.648,148.815 458.981,148.648 454.5,147.5 Z"/></g>
<g><path style="opacity:1" fill="#f5a713" d="M 481.5,97.5 C 493.171,97.3335 504.838,97.5001 516.5,98C 526.464,99.2822 531.297,104.782 531,114.5C 529.5,117.333 527.333,119.5 524.5,121C 534.761,124.907 537.261,131.741 532,141.5C 528.659,144.586 524.826,146.752 520.5,148C 507.5,148.667 494.5,148.667 481.5,148C 480.173,131.167 480.173,114.333 481.5,97.5 Z"/></g>
<g><path style="opacity:1" fill="#f4a817" d="M 542.5,97.5 C 547.762,97.1953 552.928,97.5286 558,98.5C 558.333,109.167 558.667,119.833 559,130.5C 563.073,136.63 568.573,138.13 575.5,135C 577.049,133.786 578.215,132.286 579,130.5C 579.333,119.833 579.667,109.167 580,98.5C 585.082,97.363 590.249,97.1963 595.5,98C 596.653,109.09 596.82,120.257 596,131.5C 593.969,139.867 588.802,145.367 580.5,148C 572.5,148.667 564.5,148.667 556.5,148C 548.836,145.002 544.003,139.502 542,131.5C 541.19,120.091 541.357,108.757 542.5,97.5 Z"/></g>
<g><path style="opacity:1" fill="#f4a711" d="M 653.5,109.5 C 643.167,109.5 632.833,109.5 622.5,109.5C 622.19,112.713 622.523,115.713 623.5,118.5C 631.507,118.334 639.507,118.5 647.5,119C 648.833,123 648.833,127 647.5,131C 639.173,131.5 630.84,131.666 622.5,131.5C 622.666,136.844 622.499,142.177 622,147.5C 617,148.833 612,148.833 607,147.5C 606.333,131.167 606.333,114.833 607,98.5C 622.756,97.5088 638.589,97.1754 654.5,97.5C 654.817,101.702 654.483,105.702 653.5,109.5 Z"/></g>
<g><path style="opacity:1" fill="#f5a711" d="M 708.5,109.5 C 698.167,109.5 687.833,109.5 677.5,109.5C 677.19,112.713 677.523,115.713 678.5,118.5C 686.507,118.334 694.507,118.5 702.5,119C 703.833,123 703.833,127 702.5,131C 694.507,131.5 686.507,131.666 678.5,131.5C 678.805,136.762 678.471,141.928 677.5,147C 672.177,147.499 666.844,147.666 661.5,147.5C 661.175,130.923 661.508,114.423 662.5,98C 678.167,97.3333 693.833,97.3333 709.5,98C 710.622,101.409 710.789,104.909 710,108.5C 709.617,109.056 709.117,109.389 708.5,109.5 Z"/></g>
<g><path style="opacity:1" fill="#f5a818" d="M 364.5,135.5 C 373.658,136.33 382.991,136.83 392.5,137C 393.451,140.057 393.784,143.223 393.5,146.5C 393.389,147.117 393.056,147.617 392.5,148C 377.592,148.823 362.759,148.657 348,147.5C 347.333,131.167 347.333,114.833 348,98.5C 353.082,97.363 358.249,97.1963 363.5,98C 364.489,110.42 364.822,122.92 364.5,135.5 Z"/></g>
<g><path style="opacity:1" fill="#f4a817" d="M 64.5,89.5 C 67.2469,89.1866 69.9135,89.52 72.5,90.5C 74.1759,91.7276 74.5092,93.0609 73.5,94.5C 69.9711,95.0297 69.6378,96.3631 72.5,98.5C 102.826,99.4998 133.159,99.8332 163.5,99.5C 161.896,129.129 161.062,158.795 161,188.5C 138.242,189.494 115.408,189.827 92.5,189.5C 89.3962,188.225 86.3962,188.225 83.5,189.5C 79.7143,190.929 75.8809,192.262 72,193.5C 67.7144,193.522 64.0478,192.189 61,189.5C 60.5065,187.866 60.3398,186.199 60.5,184.5C 55.6944,184.049 55.5278,183.382 60,182.5C 66.8375,183.417 73.6709,183.917 80.5,184C 81.8333,182.333 81.8333,180.667 80.5,179C 75.1851,178.187 69.8517,177.521 64.5,177C 60.2114,175.346 55.878,173.679 51.5,172C 44.1441,171.831 36.8108,171.331 29.5,170.5C 37.1945,169.199 44.8612,169.199 52.5,170.5C 53.4996,151.178 53.8329,131.845 53.5,112.5C 52.5,112.5 51.5,112.5 50.5,112.5C 50.5,109.167 50.5,105.833 50.5,102.5C 49.8333,101.833 49.1667,101.167 48.5,100.5C 48.8333,100.5 49.1667,100.5 49.5,100.5C 50.0431,100.44 50.3764,100.107 50.5,99.5C 49.3984,98.8243 48.3984,98.1577 47.5,97.5C 51.6075,96.5598 54.2741,94.0598 55.5,90C 58.4816,89.502 61.4816,89.3354 64.5,89.5 Z"/></g>
<g><path style="opacity:1" fill="#f9e2b3" d="M 56.5,91.5 C 59.9571,91.6672 60.2904,92.6672 57.5,94.5C 56.6143,93.675 56.281,92.675 56.5,91.5 Z"/></g>
<g><path style="opacity:1" fill="#f9ca6b" d="M 85.5,101.5 C 88.6868,100.194 92.0202,100.194 95.5,101.5C 95.3764,102.107 95.0431,102.44 94.5,102.5C 91.7131,101.523 88.7131,101.19 85.5,101.5 Z"/></g>
<g><path style="opacity:1" fill="#f9ca6c" d="M 103.5,101.5 C 107.351,100.191 111.351,100.191 115.5,101.5C 115.376,102.107 115.043,102.44 114.5,102.5C 111.038,101.518 107.371,101.185 103.5,101.5 Z"/></g>
<g><path style="opacity:1" fill="#f9ca6d" d="M 123.5,101.5 C 126.687,100.194 130.02,100.194 133.5,101.5C 133.376,102.107 133.043,102.44 132.5,102.5C 129.713,101.523 126.713,101.19 123.5,101.5 Z"/></g>
<g><path style="opacity:1" fill="#f2b641" d="M 47.5,97.5 C 48.3984,98.1577 49.3984,98.8243 50.5,99.5C 50.3764,100.107 50.0431,100.44 49.5,100.5C 42.7624,100.711 42.429,100.711 48.5,100.5C 49.1667,101.167 49.8333,101.833 50.5,102.5C 43.1827,104.35 36.1827,103.684 29.5,100.5C 30.5,100.167 31.5,99.8333 32.5,99.5C 35.6007,101.019 38.934,101.685 42.5,101.5C 42.5,100.5 42.5,99.5 42.5,98.5C 44.2161,98.3713 45.8828,98.038 47.5,97.5 Z"/></g>
<g><path style="opacity:1" fill="#f0ca80" d="M 49.5,100.5 C 49.1667,100.5 48.8333,100.5 48.5,100.5C 42.429,100.711 42.7624,100.711 49.5,100.5 Z"/></g>
<g><path style="opacity:1" fill="#fef3dd" d="M 85.5,101.5 C 88.7131,101.19 91.7131,101.523 94.5,102.5C 92.9676,105.057 91.3009,107.557 89.5,110C 86.1177,110.824 82.7844,110.657 79.5,109.5C 81.1712,106.508 83.1712,103.841 85.5,101.5 Z"/></g>
<g><path style="opacity:1" fill="#fef4df" d="M 103.5,101.5 C 107.371,101.185 111.038,101.518 114.5,102.5C 112.968,105.057 111.301,107.557 109.5,110C 105.459,110.827 101.459,110.66 97.5,109.5C 99.5207,106.765 101.521,104.099 103.5,101.5 Z"/></g>
<g><path style="opacity:1" fill="#fef3dd" d="M 123.5,101.5 C 126.713,101.19 129.713,101.523 132.5,102.5C 130.2,110.095 125.2,112.595 117.5,110C 119.399,107.012 121.399,104.179 123.5,101.5 Z"/></g>
<g><path style="opacity:1" fill="#fef3de" d="M 140.5,101.5 C 144.846,101.334 149.179,101.501 153.5,102C 151.5,104.667 149.5,107.333 147.5,110C 143.5,110.667 139.5,110.667 135.5,110C 137.568,107.358 139.235,104.525 140.5,101.5 Z"/></g>
<g><path style="opacity:1" fill="#f4a914" d="M 214.5,57.5 C 215.822,57.33 216.989,57.6634 218,58.5C 218.667,102.833 218.667,147.167 218,191.5C 216.644,192.38 215.144,192.714 213.5,192.5C 213.172,147.428 213.506,102.428 214.5,57.5 Z"/></g>
<g><path style="opacity:1" fill="#fce3b4" d="M 56.5,103.5 C 59.8606,104.203 60.1939,105.537 57.5,107.5C 55.3576,106.563 55.0243,105.23 56.5,103.5 Z"/></g>
<g><path style="opacity:1" fill="#fdeac6" d="M 68.5,103.5 C 70.0481,103.821 70.7148,104.821 70.5,106.5C 67.7524,106.598 67.0857,105.598 68.5,103.5 Z"/></g>
<g><path style="opacity:1" fill="#fbda99" d="M 299.5,109.5 C 289.681,110.494 279.681,110.827 269.5,110.5C 269.5,113.167 269.5,115.833 269.5,118.5C 277.684,118.174 285.684,118.508 293.5,119.5C 285.167,119.5 276.833,119.5 268.5,119.5C 268.5,116.167 268.5,112.833 268.5,109.5C 278.833,109.5 289.167,109.5 299.5,109.5 Z"/></g>
<g><path style="opacity:1" fill="#fadea3" d="M 653.5,109.5 C 643.681,110.494 633.681,110.827 623.5,110.5C 623.5,113.167 623.5,115.833 623.5,118.5C 622.523,115.713 622.19,112.713 622.5,109.5C 632.833,109.5 643.167,109.5 653.5,109.5 Z"/></g>
<g><path style="opacity:1" fill="#fadc9f" d="M 708.5,109.5 C 698.681,110.494 688.681,110.827 678.5,110.5C 678.5,113.167 678.5,115.833 678.5,118.5C 677.523,115.713 677.19,112.713 677.5,109.5C 687.833,109.5 698.167,109.5 708.5,109.5 Z"/></g>
<g><path style="opacity:1" fill="#fdf4e0" d="M 497.5,109.5 C 502.511,109.334 507.511,109.501 512.5,110C 513.98,112.235 513.647,114.068 511.5,115.5C 506.833,115.5 502.167,115.5 497.5,115.5C 497.5,113.5 497.5,111.5 497.5,109.5 Z"/></g>
<g><path style="opacity:1" fill="#fad58a" d="M 497.5,109.5 C 497.5,111.5 497.5,113.5 497.5,115.5C 502.167,115.5 506.833,115.5 511.5,115.5C 506.695,116.487 501.695,116.821 496.5,116.5C 496.198,113.941 496.532,111.607 497.5,109.5 Z"/></g>
<g><path style="opacity:1" fill="#f4a714" d="M 338.5,135.5 C 339.423,139.064 339.756,142.731 339.5,146.5C 339.389,147.117 339.056,147.617 338.5,148C 327.5,148.667 316.5,148.667 305.5,148C 304.374,144.256 304.207,140.423 305,136.5C 307.719,135.556 310.552,135.223 313.5,135.5C 313.5,126.833 313.5,118.167 313.5,109.5C 310.552,109.777 307.719,109.444 305,108.5C 304.333,105.167 304.333,101.833 305,98.5C 316.09,97.3467 327.257,97.18 338.5,98C 339.46,101.73 339.793,105.563 339.5,109.5C 336.5,109.5 333.5,109.5 330.5,109.5C 330.5,118.167 330.5,126.833 330.5,135.5C 333.167,135.5 335.833,135.5 338.5,135.5 Z"/></g>
<g><path style="opacity:1" fill="#f8c358" d="M 452.5,123.5 C 452.56,122.957 452.893,122.624 453.5,122.5C 454.498,130.807 454.831,139.14 454.5,147.5C 453.833,139.5 453.167,131.5 452.5,123.5 Z"/></g>
<g><path style="opacity:1" fill="#fef1d9" d="M 497.5,127.5 C 503.593,127.139 509.593,127.639 515.5,129C 517.602,130.733 517.935,132.733 516.5,135C 510.175,135.5 503.842,135.666 497.5,135.5C 497.5,132.833 497.5,130.167 497.5,127.5 Z"/></g>
<g><path style="opacity:1" fill="#f8be4b" d="M 364.5,135.5 C 374.172,135.334 383.839,135.5 393.5,136C 394.82,139.601 394.82,143.101 393.5,146.5C 393.784,143.223 393.451,140.057 392.5,137C 382.991,136.83 373.658,136.33 364.5,135.5 Z"/></g>
<g><path style="opacity:1" fill="#fbdc9f" d="M 338.5,135.5 C 339.787,136.871 340.453,138.705 340.5,141C 340.494,143.033 340.161,144.866 339.5,146.5C 339.756,142.731 339.423,139.064 338.5,135.5 Z"/></g>
<g><path style="opacity:1" fill="#f9c969" d="M 58.5,127.5 C 69.1667,127.5 79.8333,127.5 90.5,127.5C 90.5,134.5 90.5,141.5 90.5,148.5C 79.8333,148.5 69.1667,148.5 58.5,148.5C 68.6532,147.506 78.9865,147.172 89.5,147.5C 89.5,141.167 89.5,134.833 89.5,128.5C 78.9865,128.828 68.6532,128.494 58.5,127.5 Z"/></g>
<g><path style="opacity:1" fill="#f6c156" d="M 58.5,149.5 C 78.8333,149.5 99.1667,149.5 119.5,149.5C 119.5,152.167 119.5,154.833 119.5,157.5C 99.1667,157.5 78.8333,157.5 58.5,157.5C 78.3264,156.503 98.3264,156.17 118.5,156.5C 118.5,154.5 118.5,152.5 118.5,150.5C 98.3264,150.83 78.3264,150.497 58.5,149.5 Z"/></g>
<g><path style="opacity:1" fill="#f8c153" d="M 156.5,149.5 C 145.012,150.495 133.345,150.828 121.5,150.5C 121.5,152.5 121.5,154.5 121.5,156.5C 133.345,156.172 145.012,156.505 156.5,157.5C 144.5,157.5 132.5,157.5 120.5,157.5C 120.5,154.833 120.5,152.167 120.5,149.5C 132.5,149.5 144.5,149.5 156.5,149.5 Z"/></g>
<g><path style="opacity:1" fill="#fdeac7" d="M 58.5,127.5 C 91.0025,126.17 123.669,126.17 156.5,127.5C 146.188,128.499 135.855,128.832 125.5,128.5C 125.5,135.167 125.5,141.833 125.5,148.5C 136.014,148.172 146.347,148.506 156.5,149.5C 144.5,149.5 132.5,149.5 120.5,149.5C 120.5,152.167 120.5,154.833 120.5,157.5C 132.5,157.5 144.5,157.5 156.5,157.5C 156.5,157.833 156.5,158.167 156.5,158.5C 144.5,158.5 132.5,158.5 120.5,158.5C 120.5,161.833 120.5,165.167 120.5,168.5C 132.5,168.5 144.5,168.5 156.5,168.5C 66.2335,169.454 53.5669,169.454 118.5,168.5C 118.5,165.5 118.5,162.5 118.5,159.5C 98.1387,160.155 78.1387,159.488 58.5,157.5C 78.8333,157.5 99.1667,157.5 119.5,157.5C 119.5,154.833 119.5,152.167 119.5,149.5C 99.1667,149.5 78.8333,149.5 58.5,149.5C 58.5,149.167 58.5,148.833 58.5,148.5C 69.1667,148.5 79.8333,148.5 90.5,148.5C 90.5,141.5 90.5,134.5 90.5,127.5C 79.8333,127.5 69.1667,127.5 58.5,127.5 Z"/></g>
<g><path style="opacity:1" fill="#f8cc73" d="M 92.5,128.5 C 92.5,134.833 92.5,141.167 92.5,147.5C 102.833,147.5 113.167,147.5 123.5,147.5C 123.5,141.167 123.5,134.833 123.5,128.5C 124.491,134.979 124.824,141.646 124.5,148.5C 113.5,148.5 102.5,148.5 91.5,148.5C 91.176,141.646 91.5093,134.979 92.5,128.5 Z"/></g>
<g><path style="opacity:1" fill="#f4a503" d="M 92.5,128.5 C 102.833,128.5 113.167,128.5 123.5,128.5C 123.5,134.833 123.5,141.167 123.5,147.5C 113.167,147.5 102.833,147.5 92.5,147.5C 92.5,141.167 92.5,134.833 92.5,128.5 Z"/></g>
<g><path style="opacity:1" fill="#f9ca6c" d="M 156.5,158.5 C 145.012,159.495 133.345,159.828 121.5,159.5C 121.5,162.167 121.5,164.833 121.5,167.5C 133.345,167.172 145.012,167.505 156.5,168.5C 144.5,168.5 132.5,168.5 120.5,168.5C 120.5,165.167 120.5,161.833 120.5,158.5C 132.5,158.5 144.5,158.5 156.5,158.5 Z"/></g>
<g><path style="opacity:1" fill="#fbd68e" d="M 84.5,177.5 C 108.509,177.167 132.509,177.5 156.5,178.5C 144.5,178.833 132.5,179.167 120.5,179.5C 108.148,179.499 96.1476,178.832 84.5,177.5 Z"/></g>
<g><path style="opacity:1" fill="#f7b945" d="M 83.5,189.5 C 86.3962,188.225 89.3962,188.225 92.5,189.5C 92.4894,191.017 91.8228,192.184 90.5,193C 86.0074,195.079 81.674,197.412 77.5,200C 70.1527,201.957 62.8193,201.957 55.5,200C 47.1778,195.005 38.5111,190.838 29.5,187.5C 31.4213,186.359 33.4213,186.192 35.5,187C 42.6577,190.412 49.6577,194.078 56.5,198C 69.2276,200.813 80.5609,198.147 90.5,190C 88.1902,189.503 85.8568,189.337 83.5,189.5 Z"/></g>
<g><path style="opacity:1" fill="#fdedcc" d="M 64.5,190.5 C 68.5,189.167 72.5,189.167 76.5,190.5C 72.5424,191.45 68.5424,191.45 64.5,190.5 Z"/></g>
<g><path style="opacity:1" fill="#f9d07c" d="M 76.5,190.5 C 72.5,189.167 68.5,189.167 64.5,190.5C 63.9569,190.44 63.6236,190.107 63.5,189.5C 68.5,188.167 73.5,188.167 78.5,189.5C 78.0431,190.298 77.3764,190.631 76.5,190.5 Z"/></g>
</svg>
