<?xml version="1.0" encoding="UTF-8"?>
<!DOCTYPE svg PUBLIC "-//W3C//DTD SVG 1.1//EN" "http://www.w3.org/Graphics/SVG/1.1/DTD/svg11.dtd">
<svg xmlns="http://www.w3.org/2000/svg" version="1.1" width="212px" height="170px" style="shape-rendering:geometricPrecision; text-rendering:geometricPrecision; image-rendering:optimizeQuality; fill-rule:evenodd; clip-rule:evenodd" xmlns:xlink="http://www.w3.org/1999/xlink">
<g><path style="opacity:1" fill="#2f0b28" d="M -0.5,-0.5 C 70.1667,-0.5 140.833,-0.5 211.5,-0.5C 211.5,56.1667 211.5,112.833 211.5,169.5C 140.833,169.5 70.1667,169.5 -0.5,169.5C -0.5,112.833 -0.5,56.1667 -0.5,-0.5 Z"/></g>
<g><path style="opacity:1" fill="#b93a4f" d="M 102.5,14.5 C 110.649,13.7863 112.982,16.953 109.5,24C 102.735,26.2434 99.9019,23.7434 101,16.5C 101.717,15.9558 102.217,15.2891 102.5,14.5 Z"/></g>
<g><path style="opacity:1" fill="#56159f" d="M 93.5,30.5 C 72.2623,35.4031 61.2623,48.7365 60.5,70.5C 53.962,51.7221 59.962,38.2221 78.5,30C 83.6842,29.1837 88.6842,29.3503 93.5,30.5 Z"/></g>
<g><path style="opacity:1" fill="#5121c3" d="M 93.5,30.5 C 94.5,30.5 95.5,30.5 96.5,30.5C 99.1667,31.8333 101.833,33.1667 104.5,34.5C 99.3754,39.7545 96.7088,46.0879 96.5,53.5C 90.9198,52.6815 85.5865,53.6815 80.5,56.5C 84.0398,55.8911 88.0398,55.8911 92.5,56.5C 90.987,57.1995 88.987,58.1995 86.5,59.5C 84.5856,60.1847 82.5856,60.6847 80.5,61C 82.4017,62.7959 84.4017,62.9626 86.5,61.5C 87.0559,68.4935 87.7225,75.4935 88.5,82.5C 90.0709,83.3094 91.7376,83.6427 93.5,83.5C 93.5,84.1667 93.5,84.8333 93.5,85.5C 91.5168,85.1568 90.1834,85.8235 89.5,87.5C 90.9187,88.4511 92.5853,88.7845 94.5,88.5C 94.5,88.8333 94.5,89.1667 94.5,89.5C 89.5335,90.1736 85.2001,88.8403 81.5,85.5C 80.4679,87.0396 79.1346,87.5396 77.5,87C 70.809,84.465 65.4757,80.2983 61.5,74.5C 61.1667,73.1667 60.8333,71.8333 60.5,70.5C 61.2623,48.7365 72.2623,35.4031 93.5,30.5 Z"/></g>
<g><path style="opacity:1" fill="#1e38b5" d="M 96.5,30.5 C 100.458,30.2511 104.124,30.9177 107.5,32.5C 106.833,33.1667 106.167,33.8333 105.5,34.5C 105.167,34.5 104.833,34.5 104.5,34.5C 101.833,33.1667 99.1667,31.8333 96.5,30.5 Z"/></g>
<g><path style="opacity:1" fill="#c98e54" d="M 109.5,31.5 C 125.898,38.9794 134.898,51.6461 136.5,69.5C 135.833,70.1667 135.167,70.8333 134.5,71.5C 134.167,71.5 133.833,71.5 133.5,71.5C 130.634,65.7264 125.967,62.3931 119.5,61.5C 118.105,59.3074 117.105,56.9741 116.5,54.5C 116.483,52.4352 116.15,50.4352 115.5,48.5C 116.404,47.791 116.737,46.791 116.5,45.5C 115.5,45.5 114.5,45.5 113.5,45.5C 111.632,41.2917 108.965,37.6251 105.5,34.5C 106.167,33.8333 106.833,33.1667 107.5,32.5C 108.167,32.1667 108.833,31.8333 109.5,31.5 Z"/></g>
<g><path style="opacity:1" fill="#7733aa" d="M 104.5,34.5 C 104.833,34.5 105.167,34.5 105.5,34.5C 108.965,37.6251 111.632,41.2917 113.5,45.5C 108.619,47.4568 103.953,49.7901 99.5,52.5C 98.391,52.5569 97.391,52.8902 96.5,53.5C 96.7088,46.0879 99.3754,39.7545 104.5,34.5 Z"/></g>
<g><path style="opacity:1" fill="#461652" d="M 113.5,45.5 C 114.5,45.5 115.5,45.5 116.5,45.5C 116.737,46.791 116.404,47.791 115.5,48.5C 113.834,47.3336 112.167,47.3336 110.5,48.5C 111.855,49.6753 111.688,50.6753 110,51.5C 109.275,49.842 108.108,49.342 106.5,50C 106.273,51.1353 105.94,52.302 105.5,53.5C 103.591,52.6518 101.591,52.3184 99.5,52.5C 103.953,49.7901 108.619,47.4568 113.5,45.5 Z"/></g>
<g><path style="opacity:1" fill="#ce8434" d="M 136.5,69.5 C 134.898,51.6461 125.898,38.9794 109.5,31.5C 124.829,26.0787 135.996,30.7454 143,45.5C 145.286,54.8657 143.119,62.8657 136.5,69.5 Z"/></g>
<g><path style="opacity:1" fill="#6e2ca1" d="M 115.5,48.5 C 116.15,50.4352 116.483,52.4352 116.5,54.5C 116.5,56.5 116.5,58.5 116.5,60.5C 112.774,60.1774 109.107,60.5108 105.5,61.5C 104.485,64.1677 102.818,64.8344 100.5,63.5C 101.59,62.3914 101.59,61.3914 100.5,60.5C 99.6049,62.3068 98.2716,63.6401 96.5,64.5C 94.1088,63.8086 94.1088,62.8086 96.5,61.5C 92.0777,60.7563 91.7443,59.7563 95.5,58.5C 97.6365,57.5974 99.6365,56.4307 101.5,55C 100.619,54.2917 99.9528,53.4584 99.5,52.5C 101.591,52.3184 103.591,52.6518 105.5,53.5C 105.94,52.302 106.273,51.1353 106.5,50C 108.108,49.342 109.275,49.842 110,51.5C 111.688,50.6753 111.855,49.6753 110.5,48.5C 112.167,47.3336 113.834,47.3336 115.5,48.5 Z"/></g>
<g><path style="opacity:1" fill="#471781" d="M 96.5,53.5 C 97.391,52.8902 98.391,52.5569 99.5,52.5C 99.9528,53.4584 100.619,54.2917 101.5,55C 99.6365,56.4307 97.6365,57.5974 95.5,58.5C 95.3318,55.9486 94.3318,55.2819 92.5,56.5C 88.0398,55.8911 84.0398,55.8911 80.5,56.5C 85.5865,53.6815 90.9198,52.6815 96.5,53.5 Z"/></g>
<g><path style="opacity:1" fill="#42157e" d="M 86.5,59.5 C 86.5,60.1667 86.5,60.8333 86.5,61.5C 84.4017,62.9626 82.4017,62.7959 80.5,61C 82.5856,60.6847 84.5856,60.1847 86.5,59.5 Z"/></g>
<g><path style="opacity:1" fill="#f35f5d" d="M 119.5,61.5 C 125.967,62.3931 130.634,65.7264 133.5,71.5C 130.044,74.2075 126.044,75.5409 121.5,75.5C 122.089,71.0293 121.423,67.0293 119.5,63.5C 119.5,62.8333 119.5,62.1667 119.5,61.5 Z"/></g>
<g><path style="opacity:1" fill="#340d30" d="M 116.5,54.5 C 117.105,56.9741 118.105,59.3074 119.5,61.5C 119.5,62.1667 119.5,62.8333 119.5,63.5C 118.167,63.5 116.833,63.5 115.5,63.5C 117.054,62.1054 116.721,61.4387 114.5,61.5C 110.391,63.3292 110.724,64.3292 115.5,64.5C 115.5,65.8333 115.5,67.1667 115.5,68.5C 109.5,68.5 103.5,68.5 97.5,68.5C 97.5,70.5 97.5,72.5 97.5,74.5C 96.448,74.3505 95.448,74.5172 94.5,75C 110.173,76.1409 109.839,77.1409 93.5,78C 110.504,78.8866 110.504,80.0533 93.5,81.5C 94.3984,82.1577 95.3984,82.8243 96.5,83.5C 103.468,84.497 110.468,84.8303 117.5,84.5C 117.5,83.5 117.5,82.5 117.5,81.5C 117.833,81.5 118.167,81.5 118.5,81.5C 118.5,83.1667 118.5,84.8333 118.5,86.5C 110.414,86.1995 102.414,86.5328 94.5,87.5C 92.9504,86.2801 91.2837,86.2801 89.5,87.5C 90.1834,85.8235 91.5168,85.1568 93.5,85.5C 96.1667,84.8333 96.1667,84.1667 93.5,83.5C 91.7376,83.6427 90.0709,83.3094 88.5,82.5C 87.7225,75.4935 87.0559,68.4935 86.5,61.5C 86.5,60.8333 86.5,60.1667 86.5,59.5C 88.987,58.1995 90.987,57.1995 92.5,56.5C 94.3318,55.2819 95.3318,55.9486 95.5,58.5C 91.7443,59.7563 92.0777,60.7563 96.5,61.5C 94.1088,62.8086 94.1088,63.8086 96.5,64.5C 98.2716,63.6401 99.6049,62.3068 100.5,60.5C 101.59,61.3914 101.59,62.3914 100.5,63.5C 102.818,64.8344 104.485,64.1677 105.5,61.5C 109.107,60.5108 112.774,60.1774 116.5,60.5C 116.5,58.5 116.5,56.5 116.5,54.5 Z"/></g>
<g><path style="opacity:1" fill="#c8486c" d="M 107.5,61.5 C 111.089,61.4839 111.255,62.4839 108,64.5C 106.317,63.8235 106.15,62.8235 107.5,61.5 Z"/></g>
<g><path style="opacity:1" fill="#a7395a" d="M 115.5,63.5 C 115.5,63.8333 115.5,64.1667 115.5,64.5C 110.724,64.3292 110.391,63.3292 114.5,61.5C 116.721,61.4387 117.054,62.1054 115.5,63.5 Z"/></g>
<g><path style="opacity:1" fill="#d84c00" d="M 119.5,63.5 C 121.423,67.0293 122.089,71.0293 121.5,75.5C 121.5,77.5 121.5,79.5 121.5,81.5C 120.5,81.5 119.5,81.5 118.5,81.5C 118.211,75.4093 118.545,69.4093 119.5,63.5 Z"/></g>
<g><path style="opacity:1" fill="#1238b1" d="M 152.5,58.5 C 159.827,57.3293 162.994,60.3293 162,67.5C 158.61,71.0324 154.943,71.3658 151,68.5C 150.037,64.8513 150.537,61.518 152.5,58.5 Z"/></g>
<g><path style="opacity:1" fill="#53198e" d="M 49.5,65.5 C 53.1612,65.3501 54.1612,66.8501 52.5,70C 51.2068,70.49 49.8734,70.6567 48.5,70.5C 48.366,68.7085 48.6993,67.0418 49.5,65.5 Z"/></g>
<g><path style="opacity:1" fill="#2c0826" d="M 115.5,69.5 C 115.5,71.1667 115.5,72.8333 115.5,74.5C 113.5,74.5 111.5,74.5 109.5,74.5C 109.5,72.8333 109.5,71.1667 109.5,69.5C 111.5,69.5 113.5,69.5 115.5,69.5 Z"/></g>
<g><path style="opacity:1" fill="#2f0b00" d="M 115.5,63.5 C 116.833,63.5 118.167,63.5 119.5,63.5C 118.545,69.4093 118.211,75.4093 118.5,81.5C 118.167,81.5 117.833,81.5 117.5,81.5C 116.833,81.5 116.167,81.5 115.5,81.5C 115.5,81.1667 115.5,80.8333 115.5,80.5C 115.5,79.8333 115.5,79.1667 115.5,78.5C 115.5,78.1667 115.5,77.8333 115.5,77.5C 115.5,76.8333 115.5,76.1667 115.5,75.5C 115.5,75.1667 115.5,74.8333 115.5,74.5C 115.5,72.8333 115.5,71.1667 115.5,69.5C 118.167,69.1667 118.167,68.8333 115.5,68.5C 115.5,67.1667 115.5,65.8333 115.5,64.5C 115.5,64.1667 115.5,63.8333 115.5,63.5 Z"/></g>
<g><path style="opacity:1" fill="#82294c" d="M 115.5,68.5 C 118.167,68.8333 118.167,69.1667 115.5,69.5C 113.5,69.5 111.5,69.5 109.5,69.5C 109.5,71.1667 109.5,72.8333 109.5,74.5C 111.5,74.5 113.5,74.5 115.5,74.5C 115.5,74.8333 115.5,75.1667 115.5,75.5C 104.833,76.1667 104.833,76.8333 115.5,77.5C 115.5,77.8333 115.5,78.1667 115.5,78.5C 104.833,79.1667 104.833,79.8333 115.5,80.5C 115.5,80.8333 115.5,81.1667 115.5,81.5C 108.167,81.5 100.833,81.5 93.5,81.5C 110.504,80.0533 110.504,78.8866 93.5,78C 109.839,77.1409 110.173,76.1409 94.5,75C 95.448,74.5172 96.448,74.3505 97.5,74.5C 97.5,72.5 97.5,70.5 97.5,68.5C 103.5,68.5 109.5,68.5 115.5,68.5 Z"/></g>
<g><path style="opacity:1" fill="#2f0b28" d="M 98.5,69.5 C 101.5,69.5 104.5,69.5 107.5,69.5C 107.5,71.1667 107.5,72.8333 107.5,74.5C 104.5,74.5 101.5,74.5 98.5,74.5C 98.5,72.8333 98.5,71.1667 98.5,69.5 Z"/></g>
<g><path style="opacity:1" fill="#b63a4f" d="M 143.5,72.5 C 147.35,72.7007 148.35,74.5341 146.5,78C 143.763,79.0798 142.096,78.2464 141.5,75.5C 141.942,74.2613 142.609,73.2613 143.5,72.5 Z"/></g>
<g><path style="opacity:1" fill="#3b0e2d" d="M 115.5,75.5 C 115.5,76.1667 115.5,76.8333 115.5,77.5C 104.833,76.8333 104.833,76.1667 115.5,75.5 Z"/></g>
<g><path style="opacity:1" fill="#cc4e77" d="M 133.5,71.5 C 133.833,71.5 134.167,71.5 134.5,71.5C 134.833,72.8333 135.167,74.1667 135.5,75.5C 132.156,88.8426 124.156,98.1759 111.5,103.5C 111.167,103.5 110.833,103.5 110.5,103.5C 103.304,101.634 98.3042,97.3003 95.5,90.5C 96.4293,89.6851 97.4293,88.8518 98.5,88C 105.346,87.8283 112.013,87.3283 118.5,86.5C 118.5,84.8333 118.5,83.1667 118.5,81.5C 119.5,81.5 120.5,81.5 121.5,81.5C 121.5,79.5 121.5,77.5 121.5,75.5C 126.044,75.5409 130.044,74.2075 133.5,71.5 Z"/></g>
<g><path style="opacity:1" fill="#133dc3" d="M 61.5,74.5 C 65.4757,80.2983 70.809,84.465 77.5,87C 79.1346,87.5396 80.4679,87.0396 81.5,85.5C 85.2001,88.8403 89.5335,90.1736 94.5,89.5C 94.5,90.1667 94.8333,90.5 95.5,90.5C 98.3042,97.3003 103.304,101.634 110.5,103.5C 88.6831,109.344 72.8498,102.011 63,81.5C 62.338,79.1873 61.838,76.854 61.5,74.5 Z"/></g>
<g><path style="opacity:1" fill="#2c0826" d="M 115.5,78.5 C 115.5,79.1667 115.5,79.8333 115.5,80.5C 104.833,79.8333 104.833,79.1667 115.5,78.5 Z"/></g>
<g><path style="opacity:1" fill="#d24356" d="M 135.5,75.5 C 138.476,88.3796 133.81,97.5462 121.5,103C 118.183,103.498 114.85,103.665 111.5,103.5C 124.156,98.1759 132.156,88.8426 135.5,75.5 Z"/></g>
<g><path style="opacity:1" fill="#471333" d="M 93.5,81.5 C 100.833,81.5 108.167,81.5 115.5,81.5C 116.167,81.5 116.833,81.5 117.5,81.5C 117.5,82.5 117.5,83.5 117.5,84.5C 110.468,84.8303 103.468,84.497 96.5,83.5C 95.3984,82.8243 94.3984,82.1577 93.5,81.5 Z"/></g>
<g><path style="opacity:1" fill="#b83b68" d="M 93.5,83.5 C 96.1667,84.1667 96.1667,84.8333 93.5,85.5C 93.5,84.8333 93.5,84.1667 93.5,83.5 Z"/></g>
<g><path style="opacity:1" fill="#832d51" d="M 118.5,86.5 C 112.013,87.3283 105.346,87.8283 98.5,88C 97.4293,88.8518 96.4293,89.6851 95.5,90.5C 94.8333,90.5 94.5,90.1667 94.5,89.5C 94.5,89.1667 94.5,88.8333 94.5,88.5C 94.5,88.1667 94.5,87.8333 94.5,87.5C 102.414,86.5328 110.414,86.1995 118.5,86.5 Z"/></g>
<g><path style="opacity:1" fill="#3a1c7c" d="M 94.5,87.5 C 94.5,87.8333 94.5,88.1667 94.5,88.5C 92.5853,88.7845 90.9187,88.4511 89.5,87.5C 91.2837,86.2801 92.9504,86.2801 94.5,87.5 Z"/></g>
<g><path style="opacity:1" fill="#b97432" d="M 59.5,96.5 C 64.1585,96.0146 65.4919,97.848 63.5,102C 58.7282,102.81 57.3948,100.977 59.5,96.5 Z"/></g>
<g><path style="opacity:1" fill="#ebe7ea" d="M 50.5,124.5 C 50.44,123.957 50.1067,123.624 49.5,123.5C 48.2121,125.299 48.2121,126.965 49.5,128.5C 49.2865,130.144 49.6198,131.644 50.5,133C 52.4727,133.495 54.4727,133.662 56.5,133.5C 56.5,134.5 56.5,135.5 56.5,136.5C 54.8333,136.5 53.1667,136.5 51.5,136.5C 51.4621,139.181 52.1287,141.681 53.5,144C 53.3333,145.5 52.5,146.333 51,146.5C 49.0781,144.211 47.7448,141.545 47,138.5C 45.7949,137.929 44.6283,137.262 43.5,136.5C 44.617,135.051 45.2837,133.384 45.5,131.5C 41.8806,120.952 45.2139,117.786 55.5,122C 55.9574,122.414 56.2907,122.914 56.5,123.5C 54.604,124.466 52.604,124.799 50.5,124.5 Z"/></g>
<g><path style="opacity:1" fill="#eae6e9" d="M 67.5,120.5 C 68.4959,120.414 69.3292,120.748 70,121.5C 70.6667,128.833 70.6667,136.167 70,143.5C 68.6273,147.132 67.1273,147.299 65.5,144C 66.764,137.848 66.764,131.681 65.5,125.5C 65.4365,123.486 66.1032,121.819 67.5,120.5 Z"/></g>
<g><path style="opacity:1" fill="#eae7ea" d="M 98.5,120.5 C 103.474,120.328 107.807,121.828 111.5,125C 110.513,127.321 108.846,128.987 106.5,130C 113.21,132.549 114.21,136.549 109.5,142C 107.194,144.139 104.527,145.639 101.5,146.5C 100.833,146.167 100.167,145.833 99.5,145.5C 100.615,138.512 100.448,131.512 99,124.5C 97.2317,123.318 97.0651,121.985 98.5,120.5 Z"/></g>
<g><path style="opacity:1" fill="#867282" d="M 50.5,124.5 C 49.5655,125.568 49.2322,126.901 49.5,128.5C 48.2121,126.965 48.2121,125.299 49.5,123.5C 50.1067,123.624 50.44,123.957 50.5,124.5 Z"/></g>
<g><path style="opacity:1" fill="#e9e5e8" d="M 60.5,123.5 C 61.5,123.5 62.5,123.5 63.5,123.5C 63.8841,125.665 63.2174,127.332 61.5,128.5C 59.2957,127.218 58.9624,125.551 60.5,123.5 Z"/></g>
<g><path style="opacity:1" fill="#42213b" d="M 103.5,124.5 C 104.5,124.5 105.5,124.5 106.5,124.5C 106.5,125.5 106.5,126.5 106.5,127.5C 105.5,127.5 104.5,127.5 103.5,127.5C 103.5,126.5 103.5,125.5 103.5,124.5 Z"/></g>
<g><path style="opacity:1" fill="#eae6e9" d="M 148.5,121.5 C 151.596,120.907 153.929,121.907 155.5,124.5C 147.754,124.248 144.754,127.915 146.5,135.5C 149.167,134.833 151.833,134.167 154.5,133.5C 154.719,134.675 154.386,135.675 153.5,136.5C 147.688,137.625 147.021,140.125 151.5,144C 150.892,144.87 150.059,145.37 149,145.5C 147.118,142.745 144.618,140.745 141.5,139.5C 142.611,138.389 143.278,137.055 143.5,135.5C 141.253,129.344 142.92,124.677 148.5,121.5 Z"/></g>
<g><path style="opacity:1" fill="#f2eff1" d="M 126.5,130.5 C 126.658,133.902 126.324,137.236 125.5,140.5C 123.562,144.169 120.562,145.336 116.5,144C 115.299,143.097 114.465,141.931 114,140.5C 113.501,136.514 113.334,132.514 113.5,128.5C 114.833,128.5 116.167,128.5 117.5,128.5C 117.335,132.182 117.501,135.848 118,139.5C 119.154,141.957 120.488,141.957 122,139.5C 122.704,137.722 123.204,135.888 123.5,134C 122.14,131.73 121.473,129.23 121.5,126.5C 124.367,126.369 126.033,127.703 126.5,130.5 Z"/></g>
<g><path style="opacity:1" fill="#ebe8eb" d="M 81.5,128.5 C 84.595,128.626 86.4283,130.293 87,133.5C 88.7155,130.603 91.2155,129.269 94.5,129.5C 95.9954,135.211 95.8287,140.878 94,146.5C 92.951,148.107 91.451,148.773 89.5,148.5C 90.481,143.871 90.6477,139.204 90,134.5C 87.9728,137.221 86.4728,140.221 85.5,143.5C 84.3112,144.429 82.9778,144.762 81.5,144.5C 82.1983,134.306 80.865,133.972 77.5,143.5C 75.9936,144.747 74.4936,144.747 73,143.5C 72.3333,139.5 72.3333,135.5 73,131.5C 74.049,129.893 75.549,129.227 77.5,129.5C 77.3398,131.199 77.5065,132.866 78,134.5C 79.4307,132.636 80.5974,130.636 81.5,128.5 Z"/></g>
<g><path style="opacity:1" fill="#ece8eb" d="M 59.5,130.5 C 61.1033,130.312 62.4366,130.812 63.5,132C 62.703,135.745 62.203,139.579 62,143.5C 61,144.833 60,144.833 59,143.5C 58.2316,139.08 58.3982,134.747 59.5,130.5 Z"/></g>
<g><path style="opacity:1" fill="#e9e6e9" d="M 127.5,139.5 C 128.423,135.936 128.756,132.269 128.5,128.5C 130.333,123.25 133.999,121.083 139.5,122C 140.357,122.689 141.023,123.522 141.5,124.5C 138.843,125.259 136.177,125.926 133.5,126.5C 130.833,129.5 130.833,132.5 133.5,135.5C 135.618,134.054 137.951,133.387 140.5,133.5C 140.719,134.675 140.386,135.675 139.5,136.5C 137.941,137.074 136.441,137.74 135,138.5C 135.14,140.851 135.64,143.184 136.5,145.5C 135.448,145.649 134.448,145.483 133.5,145C 132.229,142.223 130.229,140.389 127.5,139.5 Z"/></g>
<g><path style="opacity:1" fill="#371430" d="M 104.5,133.5 C 106.948,133.085 108.281,134.085 108.5,136.5C 108.272,138.397 107.272,139.73 105.5,140.5C 104.526,138.257 104.192,135.924 104.5,133.5 Z"/></g>
<g><path style="opacity:1" fill="#5c4056" d="M 128.5,128.5 C 128.756,132.269 128.423,135.936 127.5,139.5C 126.833,139.833 126.167,140.167 125.5,140.5C 126.324,137.236 126.658,133.902 126.5,130.5C 127.167,129.833 127.833,129.167 128.5,128.5 Z"/></g>
</svg>
